<svg xmlns="http://www.w3.org/2000/svg" width="900" height="600"><rect width="900" height="600" fill="white"/><style>text{font-family:Arial;fill:#222}</style><text x="40" y="40" font-size="23">Figure 3. Match outcomes</text><line x1="50" y1="480" x2="860" y2="480" stroke="#333"/><rect x="80.0" y="150.0" width="70" height="330.0" fill="#31688e"/><text x="115.0" y="510" text-anchor="middle" font-size="11">2022 Pts</text><text x="115.0" y="135.0" text-anchor="middle" font-size="11">4.00</text><rect x="172.5" y="150.0" width="70" height="330.0" fill="#31688e"/><text x="207.5" y="510" text-anchor="middle" font-size="11">2022 GF</text><text x="207.5" y="135.0" text-anchor="middle" font-size="11">4.00</text><rect x="265.0" y="150.0" width="70" height="330.0" fill="#31688e"/><text x="300.0" y="510" text-anchor="middle" font-size="11">2022 GA</text><text x="300.0" y="135.0" text-anchor="middle" font-size="11">4.00</text><rect x="357.5" y="480.0" width="70" height="0.0" fill="#31688e"/><text x="392.5" y="510" text-anchor="middle" font-size="11">2022 GD</text><text x="392.5" y="465.0" text-anchor="middle" font-size="11">0.00</text><rect x="450.0" y="232.5" width="70" height="247.5" fill="#31688e"/><text x="485.0" y="510" text-anchor="middle" font-size="11">2026 Pts</text><text x="485.0" y="217.5" text-anchor="middle" font-size="11">3.00</text><rect x="542.5" y="315.0" width="70" height="165.0" fill="#31688e"/><text x="577.5" y="510" text-anchor="middle" font-size="11">2026 GF</text><text x="577.5" y="300.0" text-anchor="middle" font-size="11">2.00</text><rect x="635.0" y="232.5" width="70" height="247.5" fill="#31688e"/><text x="670.0" y="510" text-anchor="middle" font-size="11">2026 GA</text><text x="670.0" y="217.5" text-anchor="middle" font-size="11">3.00</text><rect x="727.5" y="480.0" width="70" height="0.0" fill="#31688e"/><text x="762.5" y="510" text-anchor="middle" font-size="11">2026 GD</text><text x="762.5" y="465.0" text-anchor="middle" font-size="11">-1.00</text><text x="40" y="575" font-size="11">Raw three-match group-stage totals.</text></svg>
