<svg xmlns="http://www.w3.org/2000/svg" width="900" height="600"><rect width="900" height="600" fill="white"/><style>text{font-family:Arial;fill:#222}</style><text x="40" y="40" font-size="23">Figure 2. Score-state exposure</text><line x1="50" y1="480" x2="860" y2="480" stroke="#333"/><rect x="80.0" y="469.1" width="70" height="10.9" fill="#31688e"/><text x="115.0" y="510" text-anchor="middle" font-size="11">2022 L</text><text x="115.0" y="454.1" text-anchor="middle" font-size="11">6.52</text><rect x="203.3" y="150.0" width="70" height="330.0" fill="#31688e"/><text x="238.3" y="510" text-anchor="middle" font-size="11">2022 D</text><text x="238.3" y="135.0" text-anchor="middle" font-size="11">197.88</text><rect x="326.7" y="327.8" width="70" height="152.2" fill="#31688e"/><text x="361.7" y="510" text-anchor="middle" font-size="11">2022 T</text><text x="361.7" y="312.8" text-anchor="middle" font-size="11">91.28</text><rect x="450.0" y="448.3" width="70" height="31.7" fill="#31688e"/><text x="485.0" y="510" text-anchor="middle" font-size="11">2026 L</text><text x="485.0" y="433.3" text-anchor="middle" font-size="11">19.00</text><rect x="573.3" y="171.5" width="70" height="308.5" fill="#31688e"/><text x="608.3" y="510" text-anchor="middle" font-size="11">2026 D</text><text x="608.3" y="156.5" text-anchor="middle" font-size="11">185.00</text><rect x="696.7" y="334.9" width="70" height="145.1" fill="#31688e"/><text x="731.7" y="510" text-anchor="middle" font-size="11">2026 T</text><text x="731.7" y="319.9" text-anchor="middle" font-size="11">87.00</text><text x="40" y="575" font-size="11">Minutes include stoppage; two 2026 durations are approximate.</text></svg>
