<svg xmlns="http://www.w3.org/2000/svg" width="900" height="600"><rect width="900" height="600" fill="white"/><style>text{font-family:Arial;fill:#222}</style><text x="40" y="40" font-size="23">Figure 1. Group-stage match timelines</text><line x1="50" y1="480" x2="860" y2="480" stroke="#333"/><rect x="80.0" y="150.0" width="70" height="330.0" fill="#31688e"/><text x="115.0" y="510" text-anchor="middle" font-size="11">3857262</text><text x="115.0" y="135.0" text-anchor="middle" font-size="11">3.00</text><rect x="203.3" y="480.0" width="70" height="0.0" fill="#31688e"/><text x="238.3" y="510" text-anchor="middle" font-size="11">3857287</text><text x="238.3" y="465.0" text-anchor="middle" font-size="11">0.00</text><rect x="326.7" y="150.0" width="70" height="330.0" fill="#31688e"/><text x="361.7" y="510" text-anchor="middle" font-size="11">3857299</text><text x="361.7" y="135.0" text-anchor="middle" font-size="11">3.00</text><rect x="450.0" y="150.0" width="70" height="330.0" fill="#31688e"/><text x="485.0" y="510" text-anchor="middle" font-size="11">KOR-CZE-2026</text><text x="485.0" y="135.0" text-anchor="middle" font-size="11">3.00</text><rect x="573.3" y="370.0" width="70" height="110.0" fill="#31688e"/><text x="608.3" y="510" text-anchor="middle" font-size="11">MEX-KOR-2026</text><text x="608.3" y="355.0" text-anchor="middle" font-size="11">1.00</text><rect x="696.7" y="370.0" width="70" height="110.0" fill="#31688e"/><text x="731.7" y="510" text-anchor="middle" font-size="11">RSA-KOR-2026</text><text x="731.7" y="355.0" text-anchor="middle" font-size="11">1.00</text><text x="40" y="575" font-size="11">Goal-driven score-state changes; cards/substitutions are absent where not verified.</text></svg>
